<svg width="92" height="92" xmlns="http://www.w3.org/2000/svg" xmlns:xlink="http://www.w3.org/1999/xlink" overflow="hidden"><defs><clipPath id="clip0"><rect x="594" y="314" width="92" height="92"/></clipPath></defs><g clip-path="url(#clip0)" transform="translate(-594 -314)"><path d="M677.498 316.5 603.492 316.5C599.558 316.576 596.428 319.825 596.501 323.76L596.501 397.24C596.428 401.175 599.558 404.424 603.492 404.5L677.508 404.5C681.443 404.424 684.572 401.175 684.499 397.24L684.499 323.77C684.572 319.83 681.438 316.576 677.498 316.5Z" stroke="#2A0845" stroke-width="3" stroke-miterlimit="8" fill="#FFFFFF" fill-rule="evenodd"/><path d="M615.997 344C610.937 343.9 606.912 339.653 607.002 334.507 606.907 329.356 610.933 325.102 615.997 325 621.063 325.099 625.093 329.354 624.998 334.507 625.087 339.655 621.059 343.903 615.997 344Z" fill="#2A0845" fill-rule="evenodd"/><path d="M664.858 393.993C659.615 394.191 655.205 390.101 655.007 384.858 654.809 379.616 658.898 375.205 664.141 375.007 669.384 374.809 673.794 378.899 673.992 384.142 673.996 384.261 673.998 384.381 673.998 384.5 674.091 389.644 670.001 393.892 664.858 393.993Z" fill="#2A0845" fill-rule="evenodd"/><path d="M664 344C658.941 343.9 654.917 339.651 655.007 334.503 654.819 329.449 658.694 325.198 663.661 325.007 668.628 324.816 672.806 328.758 672.994 333.813 673.002 334.043 673.002 334.273 672.994 334.503 673.083 339.651 669.059 343.9 664 344Z" fill="#2A0845" fill-rule="evenodd"/><path d="M616.997 393C611.837 392.812 607.812 388.631 608.007 383.66 608.191 378.953 612.11 375.178 616.997 375 622.157 375.184 626.185 379.363 625.993 384.333 625.812 389.046 621.889 392.826 616.997 393Z" fill="#2A0845" fill-rule="evenodd"/><path d="M639.861 368.993C634.619 369.183 630.207 365.31 630.007 360.343 629.807 355.376 633.895 351.196 639.138 351.007 644.38 350.817 648.792 354.69 648.992 359.657 648.996 359.775 648.999 359.892 648.999 360.01 649.087 364.879 645 368.897 639.861 368.993Z" fill="#2A0845" fill-rule="evenodd"/></g></svg>