<svg width="92" height="92" xmlns="http://www.w3.org/2000/svg" xmlns:xlink="http://www.w3.org/1999/xlink" overflow="hidden"><defs><clipPath id="clip0"><rect x="594" y="314" width="92" height="92"/></clipPath></defs><g clip-path="url(#clip0)" transform="translate(-594 -314)"><path d="M677.508 316.5 603.495 316.5C599.559 316.576 596.428 319.827 596.501 323.763L596.501 397.24C596.428 401.175 599.558 404.424 603.492 404.5L677.505 404.5C681.441 404.424 684.572 401.173 684.499 397.237L684.499 323.76C684.572 319.825 681.443 316.576 677.508 316.5Z" stroke="#2A0845" stroke-width="3" stroke-miterlimit="8" fill="#FFFFFF" fill-rule="evenodd"/><path d="M616.003 344C610.938 343.899 606.91 339.647 607.002 334.497 606.915 329.35 610.941 325.102 616.003 325 621.065 325.102 625.089 329.351 624.998 334.497 625.094 339.646 621.068 343.9 616.003 344Z" fill="#2A0845" fill-rule="evenodd"/><path d="M663.851 368.993C658.608 369.188 654.201 365.095 654.007 359.852 653.812 354.608 657.905 350.201 663.148 350.007 668.39 349.812 672.798 353.905 672.992 359.148 672.996 359.266 672.998 359.383 672.998 359.5 673.095 364.646 669.002 368.897 663.856 368.993 663.854 368.993 663.853 368.993 663.851 368.993Z" fill="#2A0845" fill-rule="evenodd"/><path d="M625 359.5C625 364.747 621.195 369 616.5 369 611.806 369 608 364.747 608 359.5 608 354.253 611.806 350 616.5 350 621.195 350 625 354.253 625 359.5Z" fill="#2A0845" fill-rule="evenodd"/><path d="M674 384.5C674 389.747 669.971 394 665 394 660.029 394 656 389.747 656 384.5 656 379.253 660.029 375 665 375 669.971 375 674 379.253 674 384.5Z" fill="#2A0845" fill-rule="evenodd"/><path d="M664 344C658.941 343.9 654.917 339.651 655.007 334.503 654.819 329.449 658.694 325.197 663.661 325.007 668.628 324.816 672.806 328.759 672.994 333.813 673.002 334.043 673.002 334.273 672.994 334.503 673.082 339.651 669.058 343.899 664 344Z" fill="#2A0845" fill-rule="evenodd"/><path d="M616.997 393C611.837 392.812 607.812 388.631 608.007 383.66 608.191 378.953 612.11 375.178 616.997 375 622.157 375.184 626.185 379.363 625.994 384.333 625.812 389.046 621.889 392.826 616.997 393Z" fill="#2A0845" fill-rule="evenodd"/></g></svg>