<svg width="92" height="92" xmlns="http://www.w3.org/2000/svg" xmlns:xlink="http://www.w3.org/1999/xlink" overflow="hidden"><defs><clipPath id="clip0"><rect x="594" y="314" width="92" height="92"/></clipPath></defs><g clip-path="url(#clip0)" transform="translate(-594 -314)"><path d="M596.5 323.502 596.5 397.508C596.576 401.443 599.825 404.572 603.76 404.499L677.237 404.499C681.173 404.572 684.424 401.441 684.5 397.505L684.5 323.502C684.413 319.567 681.166 316.44 677.23 316.501L603.77 316.501C599.83 316.428 596.576 319.562 596.5 323.502Z" stroke="#2A0845" stroke-width="3" stroke-miterlimit="8" fill="#FFFFFF" fill-rule="evenodd"/><path d="M624 384C624 388.971 619.747 393 614.5 393 609.253 393 605 388.971 605 384 605 379.029 609.253 375 614.5 375 619.747 375 624 379.029 624 384Z" fill="#2A0845" fill-rule="evenodd"/><path d="M674 334.5C673.8 339.377 669.385 343.179 664.138 342.994 659.172 342.818 655.189 339.116 655 334.5 655.2 329.623 659.615 325.821 664.862 326.007 669.828 326.182 673.811 329.884 674 334.5Z" fill="#2A0845" fill-rule="evenodd"/><path d="M648.993 360.142C649.191 365.385 645.101 369.795 639.858 369.993 634.616 370.191 630.205 366.102 630.007 360.859 629.809 355.617 633.899 351.206 639.142 351.008 639.261 351.004 639.38 351.002 639.5 351.002 644.645 350.906 648.894 354.998 648.993 360.142Z" fill="#2A0845" fill-rule="evenodd"/></g></svg>