<svg width="92" height="92" xmlns="http://www.w3.org/2000/svg" xmlns:xlink="http://www.w3.org/1999/xlink" overflow="hidden"><defs><clipPath id="clip0"><rect x="594" y="314" width="92" height="92"/></clipPath></defs><g clip-path="url(#clip0)" transform="translate(-594 -314)"><path d="M677.498 316.5 603.495 316.5C599.559 316.576 596.428 319.827 596.501 323.763L596.501 397.24C596.428 401.175 599.558 404.424 603.492 404.5L677.498 404.5C681.438 404.424 684.571 401.17 684.498 397.23L684.498 323.828C684.586 319.872 681.454 316.593 677.498 316.5Z" stroke="#2A0845" stroke-width="3" stroke-miterlimit="8" fill="#FFFFFF" fill-rule="evenodd"/><path d="M639.861 365.993C634.619 366.183 630.207 362.31 630.007 357.343 629.807 352.376 633.895 348.196 639.138 348.007 644.38 347.817 648.792 351.69 648.992 356.657 648.996 356.775 648.999 356.892 648.999 357.01 649.087 361.879 645 365.897 639.861 365.993Z" fill="#2A0845" fill-rule="evenodd"/></g></svg>