<svg width="92" height="92" xmlns="http://www.w3.org/2000/svg" xmlns:xlink="http://www.w3.org/1999/xlink" overflow="hidden"><defs><clipPath id="clip0"><rect x="594" y="314" width="92" height="92"/></clipPath></defs><g clip-path="url(#clip0)" transform="translate(-594 -314)"><path d="M596.5 323.492 596.5 397.505C596.576 401.441 599.827 404.572 603.763 404.499L677.237 404.499C681.173 404.572 684.424 401.441 684.5 397.505L684.5 323.492C684.424 319.558 681.175 316.428 677.24 316.501L603.76 316.501C599.825 316.428 596.576 319.558 596.5 323.492Z" stroke="#2A0845" stroke-width="3" stroke-miterlimit="8" fill="#FFFFFF" fill-rule="evenodd"/><path d="M624 383.997C623.9 389.057 619.65 393.083 614.5 392.994 609.446 393.179 605.196 389.303 605.007 384.336 604.818 379.369 608.761 375.192 613.815 375.006 614.044 374.998 614.272 374.998 614.5 375.006 619.647 374.917 623.897 378.938 624 383.997Z" fill="#2A0845" fill-rule="evenodd"/><path d="M674 334.497C673.806 339.37 669.395 343.174 664.148 342.994 659.174 342.823 655.184 339.117 655 334.497 655.198 329.624 659.612 325.822 664.859 326.006 669.828 326.181 673.813 329.882 674 334.497Z" fill="#2A0845" fill-rule="evenodd"/></g></svg>